<svg width="0" height="0" class="">
  <symbol fill="none" xmlns="http://www.w3.org/2000/svg" viewBox="0 0 60 60" id="1">
    <g id="Иконка 2">
      <path id="Vector" fill-rule="evenodd" clip-rule="evenodd" d="M0 5C0 2.23858 2.23858 0 5 0H55C57.7614 0 60 2.23858 60 5V55C60 57.7614 57.7614 60 55 60H5C2.23857 60 0 57.7614 0 55V5ZM3.19969 8.20031C3.19969 5.43889 5.43826 3.20031 8.19969 3.20031H51.8003C54.5617 3.20031 56.8003 5.43889 56.8003 8.20031V51.7997C56.8003 54.5611 54.5617 56.7997 51.8003 56.7997H8.19969C5.43827 56.7997 3.19969 54.5611 3.19969 51.7997V8.20031Z" fill="#1B996B"></path>
      <g id="2031990969952">
        <g id="Group">
          <path id="Vector_2" fill-rule="evenodd" clip-rule="evenodd" d="M11.2456 19.1785H48.766C50.4593 19.1785 51.849 20.5684 51.849 22.2737V43.8933C51.849 45.5986 50.4593 46.9885 48.766 46.9885H11.2456C9.54066 46.9885 8.15102 45.5986 8.15102 43.8933V22.2737C8.15102 20.5684 9.54066 19.1785 11.2456 19.1785ZM11.3974 22.3204H48.6026V43.8466H11.3974V22.3204Z" fill="#1B996B"></path>
          <path id="Vector_3" fill-rule="evenodd" clip-rule="evenodd" d="M24.9786 13.0115H35.5352C37.6606 13.0115 39.4005 14.7518 39.4005 16.8775V18.4543C39.4005 20.5801 37.6606 22.3204 35.5352 22.3204H34.3441C35.2666 22.3204 36.0257 21.5612 36.0257 20.6385V17.3214C36.0257 16.387 35.2666 15.6395 34.3441 15.6395H26.1814C25.2472 15.6395 24.4881 16.387 24.4881 17.3214V20.6385C24.4881 21.5612 25.2472 22.3204 26.1814 22.3204H24.9786C22.8532 22.3204 21.1133 20.5801 21.1133 18.4543V16.8775C21.1133 14.7518 22.8532 13.0115 24.9786 13.0115Z" fill="#1B996B"></path>
        </g>
        <path id="Vector_4" fill-rule="evenodd" clip-rule="evenodd" d="M15.6364 39.6419H40.9887C41.5375 39.6419 41.9696 40.0741 41.9696 40.623C41.9696 41.1603 41.5375 41.6041 40.9887 41.6041H14.6438C14.1066 41.6041 13.6629 41.1603 13.6629 40.623C13.6629 40.588 13.6629 40.5529 13.6629 40.5179V40.5062V27.3312C13.6629 26.7939 14.1066 26.3501 14.6555 26.3501C15.1927 26.3501 15.6364 26.7939 15.6364 27.3312V39.6419Z" fill="#1B996B"></path>
      </g>
    </g>
  </symbol>
  <symbol fill="none" xmlns="http://www.w3.org/2000/svg" viewBox="0 0 60 60" id="2">
    <g id="Иконка 3">
      <path id="Vector" fill-rule="evenodd" clip-rule="evenodd" d="M0 5C0 2.23858 2.23858 0 5 0H55C57.7614 0 60 2.23858 60 5V55C60 57.7614 57.7614 60 55 60H5C2.23858 60 0 57.7614 0 55V5ZM3.18863 8.20031C3.18863 5.43889 5.42721 3.20031 8.18863 3.20031H51.7997C54.5611 3.20031 56.7997 5.43889 56.7997 8.20031V51.7997C56.7997 54.5611 54.5611 56.7997 51.7997 56.7997H8.18863C5.4272 56.7997 3.18863 54.5611 3.18863 51.7997V8.20031Z" fill="#1B996B"></path>
      <path id="Vector_2" fill-rule="evenodd" clip-rule="evenodd" d="M29.9941 7.52185C42.41 7.52185 52.4781 17.5783 52.4781 30.0058C52.4781 42.4216 42.41 52.4897 29.9941 52.4897C17.5783 52.4897 7.51021 42.4216 7.51021 30.0058C7.51021 17.5783 17.5783 7.52185 29.9941 7.52185ZM29.9941 11.0258C40.4828 11.0258 48.9741 19.5172 48.9741 30.0058C48.9741 40.4827 40.4828 48.9857 29.9941 48.9857C19.5172 48.9857 11.0142 40.4827 11.0142 30.0058C11.0142 19.5172 19.5172 11.0258 29.9941 11.0258Z" fill="#1B996B"></path>
      <path id="Vector_3" d="M31.3023 11.8902C31.3023 10.7226 30.7166 9.77612 29.9942 9.77612C29.2717 9.77612 28.686 10.7226 28.686 11.8902V12.6728C28.686 13.8403 29.2717 14.7868 29.9942 14.7868C30.7166 14.7868 31.3023 13.8403 31.3023 12.6728V11.8902Z" fill="#1B996B"></path>
      <path id="Vector_4" d="M11.5445 28.7257C10.5465 28.7257 9.73756 29.3103 9.73756 30.0315C9.73756 30.7527 10.5465 31.3373 11.5445 31.3373L12.9436 31.3373C13.9415 31.3373 14.7505 30.7527 14.7505 30.0315C14.7505 29.3103 13.9415 28.7257 12.9436 28.7257L11.5445 28.7257Z" fill="#1B996B"></path>
      <path id="Vector_5" d="M31.3023 47.082C31.3023 46.0821 30.7166 45.2716 29.9942 45.2716C29.2717 45.2716 28.686 46.0821 28.686 47.082V48.4719C28.686 49.4718 29.2717 50.2823 29.9942 50.2823C30.7166 50.2823 31.3023 49.4718 31.3023 48.4719V47.082Z" fill="#1B996B"></path>
      <path id="Vector_6" d="M48.1443 31.3373C49.309 31.3373 50.2531 30.7526 50.2531 30.0315C50.2531 29.3103 49.309 28.7257 48.1443 28.7257L47.349 28.7257C46.1843 28.7257 45.2402 29.3103 45.2402 30.0315C45.2402 30.7526 46.1843 31.3373 47.349 31.3373L48.1443 31.3373Z" fill="#1B996B"></path>
      <path id="Vector_7" d="M31.2907 23.0445C31.2907 19.6837 30.6475 16.9592 29.854 16.9592C29.0606 16.9592 28.4174 19.6837 28.4174 23.0445V25.3338C28.4174 28.6946 29.0606 31.419 29.854 31.419C30.6475 31.419 31.2907 28.6946 31.2907 25.3338V23.0445Z" fill="#1B996B"></path>
      <path id="Vector_8" d="M33.3684 28.7314C30.6484 28.7314 28.4434 29.3746 28.4434 30.1681C28.4434 30.9615 30.6484 31.6047 33.3684 31.6047L37.1819 31.6047C39.9019 31.6047 42.1069 30.9615 42.1069 30.1681C42.1069 29.3746 39.9019 28.7314 37.1819 28.7314L33.3684 28.7314Z" fill="#1B996B"></path>
    </g>
  </symbol>
  <symbol fill="none" xmlns="http://www.w3.org/2000/svg" viewBox="0 0 60 60" id="3">
    <g id="Иконка 4">
      <path id="Vector" fill-rule="evenodd" clip-rule="evenodd" d="M0 5C0 2.23858 2.23858 0 5 0H55C57.7614 0 60 2.23858 60 5V55C60 57.7614 57.7614 60 55 60H5C2.23858 60 0 57.7614 0 55V5ZM3.20031 8.20031C3.20031 5.43889 5.43889 3.20031 8.20031 3.20031H51.8114C54.5728 3.20031 56.8114 5.43889 56.8114 8.20031V51.7997C56.8114 54.5611 54.5728 56.7997 51.8114 56.7997H8.20031C5.43888 56.7997 3.20031 54.5611 3.20031 51.7997V8.20031Z" fill="#1B996B"></path>
      <path id="Vector_2" fill-rule="evenodd" clip-rule="evenodd" d="M30.0058 7.44019C42.4684 7.44019 52.5715 17.5434 52.5715 30.0059C52.5715 42.4684 42.4684 52.5716 30.0058 52.5716C17.5433 52.5716 7.44014 42.4684 7.44014 30.0059C7.44014 17.5434 17.5433 7.44019 30.0058 7.44019ZM30.0058 10.8391C40.5879 10.8391 49.1727 19.4122 49.1727 30.0059C49.1727 40.5879 40.5879 49.161 30.0058 49.161C19.4238 49.161 10.839 40.5879 10.839 30.0059C10.839 19.4122 19.4238 10.8391 30.0058 10.8391Z" fill="#1B996B" stroke="#FEFEFE" stroke-width="0.0762"></path>
      <path id="Vector_3" fill-rule="evenodd" clip-rule="evenodd" d="M30.0058 9.40234C38.1935 9.40234 44.8394 18.6178 44.8394 30.0058C44.8394 41.3821 38.1935 50.5976 30.0058 50.5976C21.8065 50.5976 15.1723 41.3821 15.1723 30.0058C15.1723 18.6178 21.8065 9.40234 30.0058 9.40234ZM30.0058 10.839C37.1306 10.839 42.9122 19.4238 42.9122 30.0058C42.9122 40.5762 37.1306 49.161 30.0058 49.161C22.8694 49.161 17.0995 40.5762 17.0995 30.0058C17.0995 19.4238 22.8694 10.839 30.0058 10.839Z" fill="#1B996B"></path>
      <path id="Vector_4" fill-rule="evenodd" clip-rule="evenodd" d="M48.3317 19.5405C48.3317 22.262 40.1207 24.4695 30.0058 24.4695C19.8793 24.4695 11.68 22.262 11.68 19.5405H13.8641C13.8641 21.2925 21.094 22.7292 30.0058 22.7292C38.9177 22.7292 46.1475 21.2925 46.1475 19.5405H48.3317Z" fill="#1B996B"></path>
      <path id="Vector_5" fill-rule="evenodd" clip-rule="evenodd" d="M11.68 40.4711C11.68 37.7496 19.8793 35.5421 30.0058 35.5421C40.1207 35.5421 48.3317 37.7496 48.3317 40.4711H46.1475C46.1475 38.7074 38.9177 37.2824 30.0058 37.2824C21.094 37.2824 13.8641 38.7074 13.8641 40.4711H11.68Z" fill="#1B996B"></path>
      <path id="Vector_6" d="M30.8468 10.1265H29.1766V49.8033H30.8468V10.1265Z" fill="#1B996B"></path>
    </g>
  </symbol>
  <symbol fill="none" xmlns="http://www.w3.org/2000/svg" viewBox="0 0 60 60" id="4">
    <g id="Иконка 1">
      <path id="Vector" fill-rule="evenodd" clip-rule="evenodd" d="M0 5C0 2.23858 2.23858 0 5 0H55C57.7614 0 60 2.23858 60 5V55C60 57.7614 57.7614 60 55 60H5C2.23858 60 0 57.7614 0 55V5ZM3.18863 8.20031C3.18863 5.43889 5.42721 3.20031 8.18863 3.20031H51.7997C54.5611 3.20031 56.7997 5.43889 56.7997 8.20031V51.7997C56.7997 54.5611 54.5611 56.7997 51.7997 56.7997H8.18863C5.4272 56.7997 3.18863 54.5611 3.18863 51.7997V8.20031Z" fill="#1B996B"></path>
      <path id="Vector_2" fill-rule="evenodd" clip-rule="evenodd" d="M53.2606 45.4117V49.5347C53.2606 51.7305 47.6075 53.5059 40.6229 53.5059C33.65 53.5059 27.9969 51.7305 27.9969 49.5347C27.9969 49.488 27.9969 49.4529 27.9969 49.4179V45.4117C27.9969 45.3883 27.9969 45.3766 27.9969 45.365C27.9969 45.3533 27.9969 45.3416 27.9969 45.3299V45.3182V45.3066V45.2949V45.2832V42.8304C25.3105 42.0946 23.6169 41.02 23.6169 39.8286C23.6169 39.7819 23.6169 39.7469 23.6285 39.7002H23.6169V35.6939C23.6169 34.4909 25.3105 33.4163 27.9969 32.6922V29.9124C27.9969 27.7165 33.65 25.9412 40.6229 25.9412C47.6075 25.9412 53.2606 27.7165 53.2606 29.9124V34.0354C53.2606 35.2384 51.567 36.313 48.8806 37.0371V38.2752C51.567 38.9994 53.2606 40.0739 53.2606 41.277V45.4117ZM30.2511 32.2016V33.685V33.9186C30.2511 35.1917 34.8997 36.2312 40.6229 36.2312C46.3578 36.2312 51.0064 35.1917 51.0064 33.9186V32.1666C48.7288 33.2061 44.9211 33.8719 40.6229 33.8719C36.3247 33.8719 32.5287 33.2061 30.2511 32.1666V32.2016ZM27.9969 34.1755C26.6653 34.561 25.8711 35.0515 25.8711 35.5771C25.8711 36.8503 30.5197 37.8898 36.2546 37.8898C36.6517 37.8898 37.0488 37.8898 37.446 37.8781C32.1432 37.4459 28.1954 35.9626 27.9969 34.1755ZM40.6229 27.4712C46.3578 27.4712 51.0064 28.5108 51.0064 29.7839C51.0064 31.0687 46.3578 32.1082 40.6229 32.1082C34.8997 32.1082 30.2511 31.0687 30.2511 29.7839C30.2511 28.5108 34.8997 27.4712 40.6229 27.4712ZM41.2419 43.4728C46.6848 43.4027 51.0064 42.3866 51.0064 41.1602C51.0064 40.6346 50.2122 40.144 48.8806 39.7586V39.8286C48.8806 41.4638 45.7387 42.8654 41.2419 43.4728ZM25.8711 37.9599V39.7002C25.8711 40.985 30.5197 42.0245 36.2546 42.0245C41.9895 42.0245 46.6264 40.985 46.6264 39.7002V37.9599C44.3488 38.9877 40.5528 39.6651 36.2546 39.6651C31.9564 39.6651 28.1604 38.9877 25.8711 37.9599ZM30.2511 43.5429V45.2832C30.2511 46.568 34.8997 47.6075 40.6229 47.6075C46.3578 47.6075 51.0064 46.568 51.0064 45.2832V43.5429C48.7288 44.5707 44.9211 45.2482 40.6229 45.2482C36.3247 45.2482 32.5287 44.5707 30.2511 43.5429ZM30.2511 47.6659V49.4179C30.2511 50.691 34.8997 51.7305 40.6229 51.7305C46.3578 51.7305 51.0064 50.691 51.0064 49.4179V47.6659C48.7288 48.7054 44.9211 49.3712 40.6229 49.3712C36.3247 49.3712 32.5287 48.7054 30.2511 47.6659Z" fill="#1B996B" stroke="#1B996B" stroke-width="0.0762"></path>
      <path id="Vector_3" d="M38.7899 12.7338L0.824677 40.8195L2.34937 42.948L40.3146 14.8624L38.7899 12.7338Z" fill="#1B996B" stroke="#1B996B" stroke-width="0.0163053"></path>
      <path id="Vector_4" d="M10.3017 38.6956C11.8821 38.6956 13.1633 37.4144 13.1633 35.834C13.1633 34.2536 11.8821 32.9724 10.3017 32.9724C8.72132 32.9724 7.44014 34.2536 7.44014 35.834C7.44014 37.4144 8.72132 38.6956 10.3017 38.6956Z" fill="#1B996B"></path>
      <path id="Vector_5" d="M19.5406 31.5592C21.121 31.5592 22.4022 30.2781 22.4022 28.6977C22.4022 27.1172 21.121 25.8361 19.5406 25.8361C17.9602 25.8361 16.679 27.1172 16.679 28.6977C16.679 30.2781 17.9602 31.5592 19.5406 31.5592Z" fill="#1B996B"></path>
      <path id="Vector_6" fill-rule="evenodd" clip-rule="evenodd" d="M48.1916 6.79761L39.9105 19.3419L37.0372 15.7795L34.1756 12.2171L48.1916 6.79761Z" fill="#1B996B"></path>
    </g>
  </symbol>
  <symbol fill="none" xmlns="http://www.w3.org/2000/svg" viewBox="0 0 60 60" id="5">
    <g id="Иконка 8">
      <path id="Vector" fill-rule="evenodd" clip-rule="evenodd" d="M0 5C0 2.23858 2.23858 0 5 0H55C57.7614 0 60 2.23858 60 5V55C60 57.7614 57.7614 60 55 60H5C2.23858 60 0 57.7614 0 55V5ZM3.20031 8.18863C3.20031 5.4272 5.43889 3.18863 8.20031 3.18863H51.7997C54.5611 3.18863 56.7997 5.42721 56.7997 8.18863V51.7997C56.7997 54.5611 54.5611 56.7997 51.7997 56.7997H8.20031C5.43889 56.7997 3.20031 54.5611 3.20031 51.7997V8.18863Z" fill="#1B996B"></path>
      <path id="Vector_2" fill-rule="evenodd" clip-rule="evenodd" d="M15.5461 7.40515H44.6876C45.8556 7.40515 46.8017 8.35123 46.8017 9.51923V47.0937C46.8017 48.2617 45.8556 49.2078 44.6876 49.2078H15.5461C14.3897 49.2078 13.4437 48.2617 13.4437 47.0937V9.51923C13.4437 8.35123 14.3897 7.40515 15.5461 7.40515ZM15.8147 9.64771H44.4306V46.9652H15.8147V9.64771Z" fill="#1B996B" stroke="#1B996B" stroke-width="0.0762"></path>
      <path id="Vector_3" d="M31.2205 29.819H21.3393C20.9006 29.819 20.545 30.2896 20.545 30.8702C20.545 31.4507 20.9006 31.9214 21.3393 31.9214H31.2205C31.6592 31.9214 32.0148 31.4507 32.0148 30.8702C32.0148 30.2896 31.6592 29.819 31.2205 29.819Z" fill="#1B996B"></path>
      <path id="Vector_4" d="M37.9015 25.6025H21.8415C21.1255 25.6025 20.545 26.0732 20.545 26.6537C20.545 27.2343 21.1255 27.7049 21.8415 27.7049H37.9015C38.6175 27.7049 39.198 27.2343 39.198 26.6537C39.198 26.0732 38.6175 25.6025 37.9015 25.6025Z" fill="#1B996B"></path>
      <path id="Vector_5" d="M36.4532 46.2061C39.3818 46.2061 41.7559 43.832 41.7559 40.9034C41.7559 37.9748 39.3818 35.6007 36.4532 35.6007C33.5246 35.6007 31.1505 37.9748 31.1505 40.9034C31.1505 43.832 33.5246 46.2061 36.4532 46.2061Z" fill="#1B996B"></path>
      <path id="Vector_6" fill-rule="evenodd" clip-rule="evenodd" d="M33.8485 44.9912H39.3498V49.5698V55.4448L36.605 49.5698L33.8602 55.4448V49.5698H33.8485V44.9912Z" fill="#1B996B"></path>
      <path id="Vector_7" d="M36.4532 44.3606C38.3626 44.3606 39.9105 42.8127 39.9105 40.9033C39.9105 38.9939 38.3626 37.446 36.4532 37.446C34.5438 37.446 32.9959 38.9939 32.9959 40.9033C32.9959 42.8127 34.5438 44.3606 36.4532 44.3606Z" fill="#FEFEFE"></path>
      <g id="2031990950528">
        <path id="Vector_8" d="M37.9015 17.1697H21.8415C21.1255 17.1697 20.545 17.6403 20.545 18.2209C20.545 18.8014 21.1255 19.2721 21.8415 19.2721H37.9015C38.6175 19.2721 39.198 18.8014 39.198 18.2209C39.198 17.6403 38.6175 17.1697 37.9015 17.1697Z" fill="#1B996B"></path>
        <path id="Vector_9" d="M37.9014 21.3861H21.8415C21.1254 21.3861 20.545 21.8567 20.545 22.4373C20.545 23.0179 21.1254 23.4885 21.8415 23.4885H37.9014C38.6174 23.4885 39.1979 23.0179 39.1979 22.4373C39.1979 21.8567 38.6174 21.3861 37.9014 21.3861Z" fill="#1B996B"></path>
      </g>
    </g>
  </symbol>
  <symbol fill="none" xmlns="http://www.w3.org/2000/svg" viewBox="0 0 60 60" id="6">
    <g id="Иконка 7">
      <path id="Vector" fill-rule="evenodd" clip-rule="evenodd" d="M0 5C0 2.23857 2.23858 0 5 0H55C57.7614 0 60 2.23858 60 5V55C60 57.7614 57.7614 60 55 60H5C2.23857 60 0 57.7614 0 55V5ZM3.19969 8.19969C3.19969 5.43827 5.43826 3.19969 8.19969 3.19969H51.8003C54.5617 3.19969 56.8003 5.43826 56.8003 8.19969V51.8003C56.8003 54.5617 54.5617 56.8003 51.8003 56.8003H8.19969C5.43827 56.8003 3.19969 54.5617 3.19969 51.8003V8.19969Z" fill="#1B996B"></path>
      <g id="2031990960992">
        <path id="Vector_2" fill-rule="evenodd" clip-rule="evenodd" d="M31.2144 54.0094H27.8045L23.2969 40.6151C22.643 39.1904 22.2693 37.5322 22.2693 35.7572C22.2693 30.5372 25.5157 26.2982 29.5211 26.2982C33.5266 26.2982 36.7613 30.5372 36.7613 35.7572C36.7613 37.5789 36.3759 39.2721 35.6986 40.7085L31.2144 54.0094ZM30.5488 50.4827H28.4818L25.3989 39.9845C24.9668 38.8751 24.7216 37.5672 24.7216 36.1775C24.7216 32.0904 26.8703 28.7622 29.5211 28.7622C32.172 28.7622 34.3207 32.0904 34.3207 36.1775C34.3207 37.6022 34.0521 38.9335 33.6083 40.0662L30.5488 50.4827Z" fill="#1B996B"></path>
        <path id="Vector_3" d="M29.5212 40.4982C30.5725 40.4982 31.4247 39.7296 31.4247 38.7816C31.4247 37.8335 30.5725 37.0649 29.5212 37.0649C28.4699 37.0649 27.6177 37.8335 27.6177 38.7816C27.6177 39.7296 28.4699 40.4982 29.5212 40.4982Z" fill="#1B996B"></path>
        <path id="Vector_4" d="M30.5488 41.5493C30.5488 40.3561 30.0861 39.3889 29.5153 39.3889C28.9446 39.3889 28.4819 40.3561 28.4819 41.5493V51.1834C28.4819 52.3765 28.9446 53.3438 29.5153 53.3438C30.0861 53.3438 30.5488 52.3765 30.5488 51.1834V41.5493Z" fill="#1B996B"></path>
      </g>
      <path id="Vector_5" fill-rule="evenodd" clip-rule="evenodd" d="M35.3484 3.19971V20.8447C35.3484 23.3204 33.3281 25.3523 30.8525 25.3523H28.19C25.7143 25.3523 23.6824 23.3204 23.6824 20.8447V3.19971H26.1814V20.5995C26.1814 21.6855 27.0689 22.573 28.1549 22.573H30.8875C31.9735 22.573 32.861 21.6855 32.861 20.5995V3.19971H35.3484Z" fill="#1B996B"></path>
      <path id="Vector_6" d="M33.9705 8.43127H25.3056V10.2997H33.9705V8.43127Z" fill="#1B996B"></path>
    </g>
  </symbol>
  <symbol fill="none" xmlns="http://www.w3.org/2000/svg" viewBox="0 0 60 60" id="7">
    <g id="Иконка 7">
      <path id="Vector" fill-rule="evenodd" clip-rule="evenodd" d="M0 5C0 2.23857 2.23858 0 5 0H55C57.7614 0 60 2.23858 60 5V55C60 57.7614 57.7614 60 55 60H5C2.23857 60 0 57.7614 0 55V5ZM3.19969 8.19969C3.19969 5.43827 5.43826 3.19969 8.19969 3.19969H51.8003C54.5617 3.19969 56.8003 5.43826 56.8003 8.19969V51.8003C56.8003 54.5617 54.5617 56.8003 51.8003 56.8003H8.19969C5.43827 56.8003 3.19969 54.5617 3.19969 51.8003V8.19969Z" fill="#1B996B"></path>
      <g id="2031990960992">
        <path id="Vector_2" fill-rule="evenodd" clip-rule="evenodd" d="M31.2144 54.0094H27.8045L23.2969 40.6151C22.643 39.1904 22.2693 37.5322 22.2693 35.7572C22.2693 30.5372 25.5157 26.2982 29.5211 26.2982C33.5266 26.2982 36.7613 30.5372 36.7613 35.7572C36.7613 37.5789 36.3759 39.2721 35.6986 40.7085L31.2144 54.0094ZM30.5488 50.4827H28.4818L25.3989 39.9845C24.9668 38.8751 24.7216 37.5672 24.7216 36.1775C24.7216 32.0904 26.8703 28.7622 29.5211 28.7622C32.172 28.7622 34.3207 32.0904 34.3207 36.1775C34.3207 37.6022 34.0521 38.9335 33.6083 40.0662L30.5488 50.4827Z" fill="#1B996B"></path>
        <path id="Vector_3" d="M29.5212 40.4982C30.5725 40.4982 31.4247 39.7296 31.4247 38.7816C31.4247 37.8335 30.5725 37.0649 29.5212 37.0649C28.4699 37.0649 27.6177 37.8335 27.6177 38.7816C27.6177 39.7296 28.4699 40.4982 29.5212 40.4982Z" fill="#1B996B"></path>
        <path id="Vector_4" d="M30.5488 41.5493C30.5488 40.3561 30.0861 39.3889 29.5153 39.3889C28.9446 39.3889 28.4819 40.3561 28.4819 41.5493V51.1834C28.4819 52.3765 28.9446 53.3438 29.5153 53.3438C30.0861 53.3438 30.5488 52.3765 30.5488 51.1834V41.5493Z" fill="#1B996B"></path>
      </g>
      <path id="Vector_5" fill-rule="evenodd" clip-rule="evenodd" d="M35.3484 3.19971V20.8447C35.3484 23.3204 33.3281 25.3523 30.8525 25.3523H28.19C25.7143 25.3523 23.6824 23.3204 23.6824 20.8447V3.19971H26.1814V20.5995C26.1814 21.6855 27.0689 22.573 28.1549 22.573H30.8875C31.9735 22.573 32.861 21.6855 32.861 20.5995V3.19971H35.3484Z" fill="#1B996B"></path>
      <path id="Vector_6" d="M33.9705 8.43127H25.3056V10.2997H33.9705V8.43127Z" fill="#1B996B"></path>
    </g>
  </symbol>
  <symbol fill="none" xmlns="http://www.w3.org/2000/svg" viewBox="0 0 60 60" id="8">
    <g id="Иконка 6">
      <path id="Vector" fill-rule="evenodd" clip-rule="evenodd" d="M0 5C0 2.23858 2.23858 0 5 0H55C57.7614 0 60 2.23858 60 5V55C60 57.7614 57.7614 60 55 60H5C2.23858 60 0 57.7614 0 55V5ZM3.20031 8.18863C3.20031 5.4272 5.43889 3.18863 8.20031 3.18863H51.7997C54.5611 3.18863 56.7997 5.42721 56.7997 8.18863V51.7997C56.7997 54.5611 54.5611 56.7997 51.7997 56.7997H8.20031C5.43889 56.7997 3.20031 54.5611 3.20031 51.7997V8.18863Z" fill="#1B996B"></path>
      <g id="2031990961568">
        <path id="Vector_2" fill-rule="evenodd" clip-rule="evenodd" d="M16.3403 23.2665H18.9099V16.4454C18.9099 12.2523 22.846 8.83008 27.6465 8.83008H32.3418C37.154 8.83008 41.0785 12.2523 41.0785 16.4454V23.2665H43.6597C45.5285 23.2665 47.0586 24.598 47.0586 26.2215V48.2033C47.0586 49.8268 45.5285 51.1583 43.6597 51.1583H16.3403C14.4715 51.1583 12.9414 49.8268 12.9414 48.2033V26.2215C12.9414 24.598 14.4715 23.2665 16.3403 23.2665ZM17.1112 26.6771H42.8772H43.2976V47.7477H42.8772H17.1112H16.7024V26.6771H17.1112ZM23.687 23.2665H36.313V16.9477C36.313 14.927 34.4092 13.2685 32.0732 13.2685H27.9268C25.5908 13.2685 23.687 14.927 23.687 16.9477V23.2665Z" fill="#1B996B" stroke="#FEFEFE" stroke-width="0.0762"></path>
        <path id="Vector_3" fill-rule="evenodd" clip-rule="evenodd" d="M30.0876 30.4849C31.5126 30.4849 32.6689 31.6529 32.6689 33.0778C32.6689 34.1057 32.0732 34.9817 31.2206 35.4021V40.2143C31.2206 40.8333 30.7067 41.3356 30.0876 41.3356C29.4686 41.3356 28.9547 40.8333 28.9547 40.2143V35.4021C28.0904 34.9817 27.4947 34.1057 27.4947 33.0778C27.4947 31.6529 28.6627 30.4849 30.0876 30.4849Z" fill="#1B996B"></path>
      </g>
    </g>
  </symbol>
  <symbol fill="none" xmlns="http://www.w3.org/2000/svg" viewBox="0 0 60 60" id="9">
    <g id="Иконка 5">
      <path id="Vector" fill-rule="evenodd" clip-rule="evenodd" d="M0 5C0 2.23858 2.23858 0 5 0H55C57.7614 0 60 2.23858 60 5V55C60 57.7614 57.7614 60 55 60H5C2.23858 60 0 57.7614 0 55V5ZM3.20031 8.20031C3.20031 5.43889 5.43889 3.20031 8.20031 3.20031H51.7997C54.5611 3.20031 56.7997 5.43889 56.7997 8.20031V51.7997C56.7997 54.5611 54.5611 56.7997 51.7997 56.7997H8.20031C5.43889 56.7997 3.20031 54.5611 3.20031 51.7997V8.20031Z" fill="#1B996B"></path>
      <g id="2031990963744">
        <g id="Group">
          <path id="Vector_2" fill-rule="evenodd" clip-rule="evenodd" d="M52.3862 33.1828C52.3862 33.2062 52.3862 33.2179 52.3862 33.2295C52.3862 33.323 52.3862 33.4281 52.3862 33.5215C52.3862 33.6033 52.3862 33.6851 52.3746 33.7668V33.8135C52.1668 38.0417 49.8927 41.8493 46.3372 44.6642C46.1525 44.8161 45.9562 44.9562 45.7715 45.0964C46.4064 48.3551 44.6979 51.497 42.47 51.9642C40.2651 52.4314 38.4758 51.0181 37.3791 48.834C35.9361 49.161 34.4354 49.3713 32.8885 49.453C32.8539 49.453 32.8193 49.453 32.7846 49.4647C32.6807 49.4647 32.5768 49.4647 32.4729 49.4764C32.3575 49.4764 32.2305 49.4764 32.1151 49.488C32.0805 49.488 32.0343 49.488 31.9996 49.488C31.838 49.488 31.6764 49.488 31.5148 49.488H31.5033C29.4254 49.488 27.4167 49.2544 25.5235 48.8106C25.639 48.834 25.7659 48.869 25.8814 48.8924C24.7847 51.0765 22.7761 52.3847 20.8021 51.9642C18.3663 51.4503 16.9118 48.4719 17.5005 45.2716C15.919 44.1503 14.5568 42.8538 13.4717 41.4055H13.437C12.8599 40.623 12.3519 39.8054 11.9363 38.9527H9.32742C7.99987 38.9527 6.9032 37.8548 6.9032 36.4999V29.5971C6.9032 28.2422 7.99987 27.1443 9.32742 27.1443H12.0518C13.16 24.9601 14.8569 23.0096 16.981 21.4094C16.4731 18.8749 17.4312 15.2891 18.551 14.7168C19.6592 14.1445 22.8453 15.4993 24.5077 17.7769C27.0127 17.0761 28.9636 16.9009 31.5148 16.9009C43.0356 16.9009 52.3862 24.1892 52.3862 33.1828ZM23.5264 48.25L23.4918 48.2383C23.9305 47.6893 24.3229 46.8484 24.6693 45.6337V45.622C26.8049 46.2994 29.1368 46.6732 31.5725 46.6732C34.066 46.6732 36.444 46.2877 38.5912 45.5869C38.6028 45.6103 38.6028 45.6337 38.6143 45.657C38.9375 46.79 39.3069 47.5959 39.6994 48.1449C40.2882 48.8573 40.9462 49.3012 41.8697 49.1026C44.1669 48.6237 43.6244 45.0847 43.3704 43.4261C43.3704 43.3911 43.3588 43.3677 43.3473 43.3327C47.1106 40.8449 49.4887 37.189 49.4887 33.1127C49.4887 25.6142 41.4772 19.5406 31.5725 19.5406C28.8251 19.5406 26.2277 20.0078 23.8958 20.8488C22.8338 18.7814 20.3865 17.1929 19.7747 17.5317C19.1628 17.8587 18.7126 21.1057 19.4283 23.1497C16.854 24.9368 14.9839 27.3078 14.1412 29.9708H10.528C9.91616 29.9708 9.39668 30.4847 9.39668 31.1155V31.1855V35.1684V35.2618C9.39668 35.8926 9.91616 36.4065 10.528 36.4065H14.1989C15.1109 39.1746 17.1426 41.6041 19.9132 43.4028C19.6246 44.7226 19.5553 45.7738 19.6477 46.6031H19.6361C19.7169 47.8529 20.398 48.8807 21.4023 49.0909C22.1642 49.2544 22.9377 48.9157 23.5264 48.25Z" fill="#1B996B"></path>
          <path id="Vector_3" d="M19.0012 32.1432C20.0213 32.1432 20.8482 31.3065 20.8482 30.2744C20.8482 29.2423 20.0213 28.4056 19.0012 28.4056C17.9811 28.4056 17.1542 29.2423 17.1542 30.2744C17.1542 31.3065 17.9811 32.1432 19.0012 32.1432Z" fill="#1B996B"></path>
        </g>
        <path id="Vector_4" fill-rule="evenodd" clip-rule="evenodd" d="M32.1497 7.11292C35.9015 7.11292 38.9375 10.1847 38.9375 13.9807C38.9375 16.1766 37.9217 18.1271 36.3517 19.3769L34.2738 19.0148C34.2738 19.0148 29.5177 19.1433 27.6129 19.0966C26.2277 17.8468 25.3503 16.0131 25.3503 13.9807C25.3503 10.1847 28.3979 7.11292 32.1497 7.11292ZM32.1843 9.20363C34.7355 9.20363 36.8019 11.2943 36.8019 13.8756C36.8019 16.4452 34.7355 18.5359 32.1843 18.5359C29.6447 18.5359 27.5783 16.4452 27.5783 13.8756C27.5783 11.2943 29.6447 9.20363 32.1843 9.20363Z" fill="#1B996B"></path>
        <path id="Vector_5" d="M32.9462 13.3034C32.9462 12.11 32.587 11.1426 32.1439 11.1426C31.7008 11.1426 31.3416 12.11 31.3416 13.3034V15.6043C31.3416 16.7977 31.7008 17.7651 32.1439 17.7651C32.587 17.7651 32.9462 16.7977 32.9462 15.6043V13.3034Z" fill="#1B996B"></path>
        <path id="Vector_6" d="M32.7121 12.1894C33.0316 11.8009 33.0143 11.2533 32.6734 10.9663C32.3326 10.6793 31.7972 10.7616 31.4777 11.1501L30.8662 11.8936C30.5467 12.2821 30.5641 12.8297 30.9049 13.1167C31.2458 13.4037 31.7812 13.3214 32.1007 12.9329L32.7121 12.1894Z" fill="#1B996B"></path>
      </g>
    </g>
  </symbol>
  
  

  <symbol fill="none" xmlns="http://www.w3.org/2000/svg" viewBox="0 0 23 32" id="arrow">
    <path id="Vector" d="M1.30699 31L21 16.0377L1 0.999999" stroke="#1B996B" stroke-width="2"></path>
  </symbol>
  <symbol fill="none" xmlns="http://www.w3.org/2000/svg" viewBox="0 0 15 15" id="check">
    <g id="Кнопка проверки 2">
      <rect id="Rectangle 2" x="0.5" y="0.5" width="14" height="14" rx="4.5" stroke="#1B996B"></rect>
      <path id="Vector" d="M12.5116 3.6001H11.7406C11.6326 3.6001 11.53 3.65042 11.4638 3.73653L6.91657 9.57727L4.73614 6.77599C4.70315 6.73353 4.66111 6.6992 4.61317 6.67557C4.56522 6.65194 4.51262 6.63963 4.45931 6.63956H3.68839C3.61449 6.63956 3.57368 6.72567 3.6189 6.78382L6.63974 10.6642C6.78091 10.8454 7.05222 10.8454 7.1945 10.6642L12.581 3.74324C12.6263 3.6862 12.5855 3.6001 12.5116 3.6001Z" fill="#1B996B"></path>
    </g>
  </symbol>
  <symbol xmlns="http://www.w3.org/2000/svg" viewBox="0 0 24 24" id="cross">
    <path fill="currentColor" d="M18.36 19.78L12 13.41l-6.36 6.37l-1.42-1.42L10.59 12L4.22 5.64l1.42-1.42L12 10.59l6.36-6.36l1.41 1.41L13.41 12l6.36 6.36z"></path>
  </symbol>
  <symbol xmlns="http://www.w3.org/2000/svg" viewBox="0 0 20 20" id="logo-icon">
    <path fill="#1B996A" stroke="#1B996A" d="M18.178 11.373a.7.7 0 0 1 .7.7v5.874c.027.812-.071 1.345-.434 1.68c-.338.311-.828.4-1.463.366H3.144C2.5 19.961 2 19.7 1.768 19.173c-.154-.347-.226-.757-.226-1.228v-5.873a.7.7 0 0 1 1.4 0v5.873c0 .232.026.42.07.562l.036.098l-.003-.01c.001-.013.03-.008.132-.002h13.84c.245.014.401 0 .456-.001l.004-.001c-.013-.053.012-.27 0-.622v-5.897a.7.7 0 0 1 .701-.7ZM10.434 0c.264 0 .5.104.722.297l8.625 8.139a.7.7 0 1 1-.962 1.017l-8.417-7.944l-9.244 7.965a.7.7 0 0 1-.915-1.06L9.689.277l.086-.064c.214-.134.428-.212.66-.212Z"></path>
  </symbol>
</svg>